<mxfile host="localhost" modified="2020-05-16T03:01:29.407Z" agent="5.0 (Macintosh; Intel Mac OS X 10_15_4) AppleWebKit/537.36 (KHTML, like Gecko) Code/1.45.0 Chrome/78.0.3904.130 Electron/7.2.4 Safari/537.36" etag="XmD3Vg-_6QzoBYAd0yFy" version="13.0.9">
    <diagram id="-uK3z_OYUxD0II8DkIRe" name="Page-1">
        <mxGraphModel dx="401" dy="662" grid="1" gridSize="10" guides="1" tooltips="1" connect="1" arrows="1" fold="1" page="1" pageScale="1" pageWidth="850" pageHeight="1100" background="none" math="0" shadow="0">
            <root>
                <mxCell id="0"/>
                <mxCell id="1" parent="0"/>
                <mxCell id="23" value="CodePipeline" style="outlineConnect=0;fontColor=#232F3E;gradientColor=#4D72F3;gradientDirection=north;fillColor=#3334B9;strokeColor=#ffffff;dashed=0;verticalLabelPosition=bottom;verticalAlign=top;align=center;html=1;fontSize=12;fontStyle=0;aspect=fixed;shape=mxgraph.aws4.resourceIcon;resIcon=mxgraph.aws4.codepipeline;" parent="1" vertex="1">
                    <mxGeometry x="688" y="187.875" width="78" height="78" as="geometry"/>
                </mxCell>
                <mxCell id="24" value="" style="edgeStyle=orthogonalEdgeStyle;rounded=0;orthogonalLoop=1;jettySize=auto;html=1;noEdgeStyle=1;orthogonal=1;" parent="1" source="25" target="26" edge="1">
                    <mxGeometry relative="1" as="geometry">
                        <Array as="points">
                            <mxPoint x="957.5" y="84.25"/>
                            <mxPoint x="995.5" y="142.5"/>
                            <mxPoint x="1180.5" y="142.5"/>
                            <mxPoint x="1218.5" y="148.83333333333334"/>
                        </Array>
                    </mxGeometry>
                </mxCell>
                <mxCell id="25" value="CodeBuild" style="outlineConnect=0;fontColor=#232F3E;gradientColor=#4D72F3;gradientDirection=north;fillColor=#3334B9;strokeColor=#ffffff;dashed=0;verticalLabelPosition=bottom;verticalAlign=top;align=center;html=1;fontSize=12;fontStyle=0;aspect=fixed;shape=mxgraph.aws4.resourceIcon;resIcon=mxgraph.aws4.codebuild;" parent="1" vertex="1">
                    <mxGeometry x="866.75" y="57" width="78" height="78" as="geometry"/>
                </mxCell>
                <mxCell id="26" value="S3" style="outlineConnect=0;fontColor=#232F3E;gradientColor=#60A337;gradientDirection=north;fillColor=#277116;strokeColor=#ffffff;dashed=0;verticalLabelPosition=bottom;verticalAlign=top;align=center;html=1;fontSize=12;fontStyle=0;aspect=fixed;shape=mxgraph.aws4.resourceIcon;resIcon=mxgraph.aws4.s3;" parent="1" vertex="1">
                    <mxGeometry x="1230.5" y="129" width="78" height="78" as="geometry"/>
                </mxCell>
                <mxCell id="27" value="CodeDeploy" style="outlineConnect=0;fontColor=#232F3E;gradientColor=#4D72F3;gradientDirection=north;fillColor=#3334B9;strokeColor=#ffffff;dashed=0;verticalLabelPosition=bottom;verticalAlign=top;align=center;html=1;fontSize=12;fontStyle=0;aspect=fixed;shape=mxgraph.aws4.resourceIcon;resIcon=mxgraph.aws4.codedeploy;" parent="1" vertex="1">
                    <mxGeometry x="866.75" y="186" width="78" height="78" as="geometry"/>
                </mxCell>
                <mxCell id="29" value="" style="curved=1;endArrow=classic;html=1;strokeColor=#000000;noEdgeStyle=1;orthogonal=1;" parent="1" source="23" target="25" edge="1">
                    <mxGeometry width="50" height="50" relative="1" as="geometry">
                        <mxPoint x="130" y="542" as="sourcePoint"/>
                        <mxPoint x="180" y="492" as="targetPoint"/>
                        <Array as="points">
                            <mxPoint x="778" y="207.70833333333334"/>
                            <mxPoint x="854" y="106.5"/>
                        </Array>
                    </mxGeometry>
                </mxCell>
                <mxCell id="31" value="" style="curved=1;endArrow=classic;html=1;strokeColor=#000000;noEdgeStyle=1;orthogonal=1;" parent="1" source="25" target="26" edge="1">
                    <mxGeometry width="50" height="50" relative="1" as="geometry">
                        <mxPoint x="338" y="501" as="sourcePoint"/>
                        <mxPoint x="420" y="501" as="targetPoint"/>
                        <Array as="points">
                            <mxPoint x="957.5" y="128.75"/>
                            <mxPoint x="995.5" y="152.5"/>
                            <mxPoint x="1180.5" y="152.5"/>
                            <mxPoint x="1218.5" y="178.5"/>
                        </Array>
                    </mxGeometry>
                </mxCell>
                <mxCell id="33" value="" style="curved=1;endArrow=classic;html=1;strokeColor=#000000;noEdgeStyle=1;orthogonal=1;" parent="1" source="23" target="27" edge="1">
                    <mxGeometry width="50" height="50" relative="1" as="geometry">
                        <mxPoint x="170" y="732" as="sourcePoint"/>
                        <mxPoint x="178" y="604.3243243243244" as="targetPoint"/>
                        <Array as="points">
                            <mxPoint x="780" y="237.375"/>
                            <mxPoint x="854" y="235.5"/>
                        </Array>
                    </mxGeometry>
                </mxCell>
                <mxCell id="34" value="CloudFormation" style="outlineConnect=0;fontColor=#232F3E;gradientColor=#F34482;gradientDirection=north;fillColor=#BC1356;strokeColor=#ffffff;dashed=0;verticalLabelPosition=bottom;verticalAlign=top;align=center;html=1;fontSize=12;fontStyle=0;aspect=fixed;shape=mxgraph.aws4.resourceIcon;resIcon=mxgraph.aws4.cloudformation;" parent="1" vertex="1">
                    <mxGeometry x="1049" y="191" width="78" height="78" as="geometry"/>
                </mxCell>
                <mxCell id="35" value="" style="curved=1;endArrow=classic;html=1;strokeColor=#000000;noEdgeStyle=1;orthogonal=1;" parent="1" source="27" target="34" edge="1">
                    <mxGeometry width="50" height="50" relative="1" as="geometry">
                        <mxPoint x="178" y="608.099173553719" as="sourcePoint"/>
                        <mxPoint x="297.4953271028037" y="670" as="targetPoint"/>
                        <Array as="points">
                            <mxPoint x="957.5" y="235.5"/>
                            <mxPoint x="1033.5" y="240.5"/>
                        </Array>
                    </mxGeometry>
                </mxCell>
                <mxCell id="37" value="" style="curved=1;endArrow=classic;html=1;strokeColor=#000000;noEdgeStyle=1;orthogonal=1;" parent="1" source="34" target="40" edge="1">
                    <mxGeometry width="50" height="50" relative="1" as="geometry">
                        <mxPoint x="612" y="543.3055555555557" as="sourcePoint"/>
                        <mxPoint x="716" y="465.2578125" as="targetPoint"/>
                        <Array as="points">
                            <mxPoint x="1142.5" y="262.75"/>
                            <mxPoint x="1218.5" y="307.5"/>
                        </Array>
                    </mxGeometry>
                </mxCell>
                <mxCell id="39" value="Webhook" style="curved=1;endArrow=classic;html=1;strokeColor=#000000;noEdgeStyle=1;orthogonal=1;" parent="1" source="77" target="23" edge="1">
                    <mxGeometry width="50" height="50" relative="1" as="geometry">
                        <mxPoint x="85" y="188.5" as="sourcePoint"/>
                        <mxPoint x="363" y="137.5" as="targetPoint"/>
                        <Array as="points">
                            <mxPoint x="600" y="240.1875"/>
                            <mxPoint x="676" y="237.375"/>
                        </Array>
                    </mxGeometry>
                </mxCell>
                <mxCell id="40" value="SAM" style="outlineConnect=0;fontColor=#232F3E;gradientColor=#F78E04;gradientDirection=north;fillColor=#D05C17;strokeColor=#ffffff;dashed=0;verticalLabelPosition=bottom;verticalAlign=top;align=center;html=1;fontSize=12;fontStyle=0;aspect=fixed;shape=mxgraph.aws4.resourceIcon;resIcon=mxgraph.aws4.serverless_application_repository;labelBackgroundColor=none;" parent="1" vertex="1">
                    <mxGeometry x="1230.5" y="258" width="78" height="78" as="geometry"/>
                </mxCell>
                <mxCell id="41" value="Lambda" style="outlineConnect=0;fontColor=#232F3E;gradientColor=#F78E04;gradientDirection=north;fillColor=#D05C17;strokeColor=#ffffff;dashed=0;verticalLabelPosition=bottom;verticalAlign=top;align=center;html=1;fontSize=12;fontStyle=0;aspect=fixed;shape=mxgraph.aws4.resourceIcon;resIcon=mxgraph.aws4.lambda;labelBackgroundColor=none;" parent="1" vertex="1">
                    <mxGeometry x="1410" width="78" height="78" as="geometry"/>
                </mxCell>
                <mxCell id="42" value="API Gateway" style="outlineConnect=0;fontColor=#232F3E;gradientColor=#F54749;gradientDirection=north;fillColor=#C7131F;strokeColor=#ffffff;dashed=0;verticalLabelPosition=bottom;verticalAlign=top;align=center;html=1;fontSize=12;fontStyle=0;aspect=fixed;shape=mxgraph.aws4.resourceIcon;resIcon=mxgraph.aws4.api_gateway;labelBackgroundColor=none;" parent="1" vertex="1">
                    <mxGeometry x="1410" y="129" width="78" height="78" as="geometry"/>
                </mxCell>
                <mxCell id="43" value="Step Functions" style="outlineConnect=0;fontColor=#232F3E;gradientColor=#F34482;gradientDirection=north;fillColor=#BC1356;strokeColor=#ffffff;dashed=0;verticalLabelPosition=bottom;verticalAlign=top;align=center;html=1;fontSize=12;fontStyle=0;aspect=fixed;shape=mxgraph.aws4.resourceIcon;resIcon=mxgraph.aws4.sqs;labelBackgroundColor=none;" parent="1" vertex="1">
                    <mxGeometry x="1410" y="258" width="78" height="78" as="geometry"/>
                </mxCell>
                <mxCell id="44" value="SQS" style="outlineConnect=0;fontColor=#232F3E;gradientColor=#F34482;gradientDirection=north;fillColor=#BC1356;strokeColor=#ffffff;dashed=0;verticalLabelPosition=bottom;verticalAlign=top;align=center;html=1;fontSize=12;fontStyle=0;aspect=fixed;shape=mxgraph.aws4.resourceIcon;resIcon=mxgraph.aws4.step_functions;labelBackgroundColor=none;" parent="1" vertex="1">
                    <mxGeometry x="1410" y="387" width="78" height="78" as="geometry"/>
                </mxCell>
                <mxCell id="45" value="SES" style="outlineConnect=0;dashed=0;verticalLabelPosition=bottom;verticalAlign=top;align=center;html=1;shape=mxgraph.aws3.ses;fillColor=#D9A741;gradientColor=none;labelBackgroundColor=none;fontSize=12;fontColor=#000000;" parent="1" vertex="1">
                    <mxGeometry x="866" y="315" width="79.5" height="93" as="geometry"/>
                </mxCell>
                <mxCell id="47" value="" style="curved=1;endArrow=classic;html=1;strokeColor=#000000;noEdgeStyle=1;orthogonal=1;" parent="1" source="23" target="45" edge="1">
                    <mxGeometry width="50" height="50" relative="1" as="geometry">
                        <mxPoint x="263" y="200.5" as="sourcePoint"/>
                        <mxPoint x="700" y="198.5" as="targetPoint"/>
                        <Array as="points">
                            <mxPoint x="778" y="267.0416666666667"/>
                            <mxPoint x="854" y="372"/>
                        </Array>
                    </mxGeometry>
                </mxCell>
                <mxCell id="48" value="Notification" style="edgeLabel;html=1;align=center;verticalAlign=middle;resizable=0;points=[];fontSize=12;fontColor=#FFFFFF;" parent="47" vertex="1" connectable="0">
                    <mxGeometry x="-0.6504" y="50" relative="1" as="geometry">
                        <mxPoint as="offset"/>
                    </mxGeometry>
                </mxCell>
                <mxCell id="50" value="" style="curved=1;endArrow=classic;html=1;strokeColor=#000000;noEdgeStyle=1;orthogonal=1;" parent="1" source="34" target="26" edge="1">
                    <mxGeometry width="50" height="50" relative="1" as="geometry">
                        <mxPoint x="441" y="339.75" as="sourcePoint"/>
                        <mxPoint x="544.5" y="268" as="targetPoint"/>
                        <Array as="points">
                            <mxPoint x="1142.5" y="218.25"/>
                            <mxPoint x="1216.5" y="208.16666666666666"/>
                        </Array>
                    </mxGeometry>
                </mxCell>
                <mxCell id="53" value="" style="curved=1;endArrow=classic;html=1;strokeColor=#000000;noEdgeStyle=1;orthogonal=1;" parent="1" source="40" target="41" edge="1">
                    <mxGeometry width="50" height="50" relative="1" as="geometry">
                        <mxPoint x="624" y="422.75" as="sourcePoint"/>
                        <mxPoint x="727.5" y="419.5" as="targetPoint"/>
                        <Array as="points">
                            <mxPoint x="1320.5" y="274.125"/>
                            <mxPoint x="1396.5" y="49.5"/>
                        </Array>
                    </mxGeometry>
                </mxCell>
                <mxCell id="54" value="" style="curved=1;endArrow=classic;html=1;strokeColor=#000000;noEdgeStyle=1;orthogonal=1;" parent="1" source="40" target="42" edge="1">
                    <mxGeometry width="50" height="50" relative="1" as="geometry">
                        <mxPoint x="510" y="620" as="sourcePoint"/>
                        <mxPoint x="727.5" y="319" as="targetPoint"/>
                        <Array as="points">
                            <mxPoint x="1322.5" y="296.375"/>
                            <mxPoint x="1396.5" y="178.5"/>
                        </Array>
                    </mxGeometry>
                </mxCell>
                <mxCell id="59" value="" style="curved=1;endArrow=classic;html=1;strokeColor=#000000;noEdgeStyle=1;orthogonal=1;" parent="1" source="40" target="43" edge="1">
                    <mxGeometry width="50" height="50" relative="1" as="geometry">
                        <mxPoint x="624" y="417.625" as="sourcePoint"/>
                        <mxPoint x="727.5" y="484" as="targetPoint"/>
                        <Array as="points">
                            <mxPoint x="1322.5" y="318.625"/>
                            <mxPoint x="1396.5" y="307.5"/>
                        </Array>
                    </mxGeometry>
                </mxCell>
                <mxCell id="60" value="" style="curved=1;endArrow=classic;html=1;strokeColor=#000000;noEdgeStyle=1;orthogonal=1;" parent="1" source="40" target="44" edge="1">
                    <mxGeometry width="50" height="50" relative="1" as="geometry">
                        <mxPoint x="624" y="417.625" as="sourcePoint"/>
                        <mxPoint x="690" y="627" as="targetPoint"/>
                        <Array as="points">
                            <mxPoint x="1320.5" y="340.875"/>
                            <mxPoint x="1396.5" y="436.5"/>
                        </Array>
                    </mxGeometry>
                </mxCell>
                <mxCell id="61" value="Amplify" style="outlineConnect=0;fontColor=#232F3E;gradientColor=#F54749;gradientDirection=north;fillColor=#C7131F;strokeColor=#ffffff;dashed=0;verticalLabelPosition=bottom;verticalAlign=top;align=center;html=1;fontSize=12;fontStyle=0;aspect=fixed;shape=mxgraph.aws4.resourceIcon;resIcon=mxgraph.aws4.amplify;labelBackgroundColor=none;" parent="1" vertex="1">
                    <mxGeometry x="513" y="1137.4285714285713" width="78" height="78" as="geometry"/>
                </mxCell>
                <mxCell id="62" value="CloudFront" style="outlineConnect=0;fontColor=#232F3E;gradientColor=#945DF2;gradientDirection=north;fillColor=#5A30B5;strokeColor=#ffffff;dashed=0;verticalLabelPosition=bottom;verticalAlign=top;align=center;html=1;fontSize=12;fontStyle=0;aspect=fixed;shape=mxgraph.aws4.resourceIcon;resIcon=mxgraph.aws4.cloudfront;labelBackgroundColor=none;" parent="1" vertex="1">
                    <mxGeometry x="691.75" y="1266" width="78" height="78" as="geometry"/>
                </mxCell>
                <mxCell id="63" value="Route53" style="outlineConnect=0;fontColor=#232F3E;gradientColor=#945DF2;gradientDirection=north;fillColor=#5A30B5;strokeColor=#ffffff;dashed=0;verticalLabelPosition=bottom;verticalAlign=top;align=center;html=1;fontSize=12;fontStyle=0;aspect=fixed;shape=mxgraph.aws4.resourceIcon;resIcon=mxgraph.aws4.route_53;labelBackgroundColor=none;" parent="1" vertex="1">
                    <mxGeometry x="691.75" y="1137" width="78" height="78" as="geometry"/>
                </mxCell>
                <mxCell id="64" value="S3" style="outlineConnect=0;fontColor=#232F3E;gradientColor=#60A337;gradientDirection=north;fillColor=#277116;strokeColor=#ffffff;dashed=0;verticalLabelPosition=bottom;verticalAlign=top;align=center;html=1;fontSize=12;fontStyle=0;aspect=fixed;shape=mxgraph.aws4.resourceIcon;resIcon=mxgraph.aws4.s3;labelBackgroundColor=none;" parent="1" vertex="1">
                    <mxGeometry x="691.75" y="879" width="78" height="78" as="geometry"/>
                </mxCell>
                <mxCell id="71" value="" style="curved=1;endArrow=classic;html=1;strokeColor=#000000;noEdgeStyle=1;orthogonal=1;" parent="1" source="61" target="64" edge="1">
                    <mxGeometry width="50" height="50" relative="1" as="geometry">
                        <mxPoint x="128" y="670" as="sourcePoint"/>
                        <mxPoint x="318" y="623" as="targetPoint"/>
                        <Array as="points">
                            <mxPoint x="603" y="1151.3285714285714"/>
                            <mxPoint x="679" y="928.5"/>
                        </Array>
                    </mxGeometry>
                </mxCell>
                <mxCell id="66" value="ACM" style="outlineConnect=0;fontColor=#232F3E;gradientColor=#F54749;gradientDirection=north;fillColor=#C7131F;strokeColor=#ffffff;dashed=0;verticalLabelPosition=bottom;verticalAlign=top;align=center;html=1;fontSize=12;fontStyle=0;aspect=fixed;shape=mxgraph.aws4.resourceIcon;resIcon=mxgraph.aws4.certificate_manager_3;labelBackgroundColor=none;" parent="1" vertex="1">
                    <mxGeometry x="691.75" y="1008" width="78" height="78" as="geometry"/>
                </mxCell>
                <mxCell id="72" value="" style="curved=1;endArrow=classic;html=1;strokeColor=#000000;noEdgeStyle=1;orthogonal=1;" parent="1" source="61" target="66" edge="1">
                    <mxGeometry width="50" height="50" relative="1" as="geometry">
                        <mxPoint x="118" y="660" as="sourcePoint"/>
                        <mxPoint x="229" y="660" as="targetPoint"/>
                        <Array as="points">
                            <mxPoint x="605" y="1169.1285714285714"/>
                            <mxPoint x="679" y="1057.5"/>
                        </Array>
                    </mxGeometry>
                </mxCell>
                <mxCell id="73" value="" style="curved=1;endArrow=classic;html=1;strokeColor=#000000;noEdgeStyle=1;orthogonal=1;" parent="1" source="61" target="63" edge="1">
                    <mxGeometry width="50" height="50" relative="1" as="geometry">
                        <mxPoint x="268" y="540" as="sourcePoint"/>
                        <mxPoint x="239" y="670" as="targetPoint"/>
                        <Array as="points">
                            <mxPoint x="607" y="1186.9285714285713"/>
                            <mxPoint x="679" y="1186.5"/>
                        </Array>
                    </mxGeometry>
                </mxCell>
                <mxCell id="74" value="" style="curved=1;endArrow=classic;html=1;strokeColor=#000000;noEdgeStyle=1;orthogonal=1;" parent="1" source="61" target="62" edge="1">
                    <mxGeometry width="50" height="50" relative="1" as="geometry">
                        <mxPoint x="128" y="670" as="sourcePoint"/>
                        <mxPoint x="381" y="700" as="targetPoint"/>
                        <Array as="points">
                            <mxPoint x="605" y="1204.7285714285713"/>
                            <mxPoint x="679" y="1315.5"/>
                        </Array>
                    </mxGeometry>
                </mxCell>
                <mxCell id="75" value="Webhook" style="curved=1;endArrow=classic;html=1;strokeColor=#000000;noEdgeStyle=1;orthogonal=1;" parent="1" source="76" target="61" edge="1">
                    <mxGeometry width="50" height="50" relative="1" as="geometry">
                        <mxPoint y="350" as="sourcePoint"/>
                        <mxPoint x="185" y="456.42578125" as="targetPoint"/>
                        <Array as="points">
                            <mxPoint x="425" y="1129.5"/>
                            <mxPoint x="501" y="1164.6785714285713"/>
                        </Array>
                    </mxGeometry>
                </mxCell>
                <mxCell id="76" value="" style="dashed=0;outlineConnect=0;html=1;align=center;labelPosition=center;verticalLabelPosition=bottom;verticalAlign=top;shape=mxgraph.weblogos.github" parent="1" vertex="1">
                    <mxGeometry x="333" y="1092" width="75" height="75" as="geometry"/>
                </mxCell>
                <mxCell id="77" value="" style="dashed=0;outlineConnect=0;html=1;align=center;labelPosition=center;verticalLabelPosition=bottom;verticalAlign=top;shape=mxgraph.weblogos.github" parent="1" vertex="1">
                    <mxGeometry x="513" y="202.6875" width="75" height="75" as="geometry"/>
                </mxCell>
                <mxCell id="79" value="SES" style="outlineConnect=0;dashed=0;verticalLabelPosition=bottom;verticalAlign=top;align=center;html=1;shape=mxgraph.aws3.ses;fillColor=#D9A741;gradientColor=none;labelBackgroundColor=none;fontSize=12;fontColor=#000000;" parent="1" vertex="1">
                    <mxGeometry x="691" y="1395" width="79.5" height="93" as="geometry"/>
                </mxCell>
                <mxCell id="80" value="" style="curved=1;endArrow=classic;html=1;strokeColor=#000000;noEdgeStyle=1;orthogonal=1;" parent="1" source="61" target="79" edge="1">
                    <mxGeometry width="50" height="50" relative="1" as="geometry">
                        <mxPoint x="263" y="552.625" as="sourcePoint"/>
                        <mxPoint x="363" y="392.5" as="targetPoint"/>
                        <Array as="points">
                            <mxPoint x="603" y="1222.5285714285712"/>
                            <mxPoint x="679" y="1452"/>
                        </Array>
                    </mxGeometry>
                </mxCell>
                <mxCell id="81" value="CloudFormation" style="outlineConnect=0;fontColor=#232F3E;gradientColor=#F34482;gradientDirection=north;fillColor=#BC1356;strokeColor=#ffffff;dashed=0;verticalLabelPosition=bottom;verticalAlign=top;align=center;html=1;fontSize=12;fontStyle=0;aspect=fixed;shape=mxgraph.aws4.resourceIcon;resIcon=mxgraph.aws4.cloudformation;" parent="1" vertex="1">
                    <mxGeometry x="331.5" y="192.09375" width="78" height="78" as="geometry"/>
                </mxCell>
                <mxCell id="84" value="" style="curved=1;endArrow=classic;html=1;strokeColor=#000000;noEdgeStyle=1;orthogonal=1;" parent="1" source="81" target="77" edge="1">
                    <mxGeometry width="50" height="50" relative="1" as="geometry">
                        <mxPoint x="263" y="1361.9687499999995" as="sourcePoint"/>
                        <mxPoint x="363" y="1469.4999999999995" as="targetPoint"/>
                        <Array as="points">
                            <mxPoint x="425" y="241.59375"/>
                            <mxPoint x="501" y="240.1875"/>
                        </Array>
                    </mxGeometry>
                </mxCell>
                <mxCell id="86" value="CloudFormation" style="outlineConnect=0;fontColor=#232F3E;gradientColor=#F34482;gradientDirection=north;fillColor=#BC1356;strokeColor=#ffffff;dashed=0;verticalLabelPosition=bottom;verticalAlign=top;align=center;html=1;fontSize=12;fontStyle=0;aspect=fixed;shape=mxgraph.aws4.resourceIcon;resIcon=mxgraph.aws4.cloudformation;" parent="1" vertex="1">
                    <mxGeometry x="331.5" y="1197" width="78" height="78" as="geometry"/>
                </mxCell>
                <mxCell id="87" value="" style="curved=1;endArrow=classic;html=1;strokeColor=#000000;noEdgeStyle=1;orthogonal=1;" parent="1" source="86" target="61" edge="1">
                    <mxGeometry width="50" height="50" relative="1" as="geometry">
                        <mxPoint x="91.5" y="1335.05078125" as="sourcePoint"/>
                        <mxPoint x="195" y="1335.05078125" as="targetPoint"/>
                        <Array as="points">
                            <mxPoint x="425" y="1246.5"/>
                            <mxPoint x="501" y="1209.1785714285713"/>
                        </Array>
                    </mxGeometry>
                </mxCell>
                <mxCell id="91" value="" style="group;container=1;" parent="1" vertex="1" connectable="0">
                    <mxGeometry y="1569" width="1374.5" height="265.4999999999998" as="geometry"/>
                </mxCell>
                <mxCell id="2" value="CodePipeline" style="outlineConnect=0;fontColor=#232F3E;gradientColor=#4D72F3;gradientDirection=north;fillColor=#3334B9;strokeColor=#ffffff;dashed=0;verticalLabelPosition=bottom;verticalAlign=top;align=center;html=1;fontSize=12;fontStyle=0;aspect=fixed;shape=mxgraph.aws4.resourceIcon;resIcon=mxgraph.aws4.codepipeline;" parent="91" vertex="1">
                    <mxGeometry x="727.5" y="-965.0625000000005" width="78" height="78" as="geometry"/>
                </mxCell>
                <mxCell id="3" value="CodeBuild" style="outlineConnect=0;fontColor=#232F3E;gradientColor=#4D72F3;gradientDirection=north;fillColor=#3334B9;strokeColor=#ffffff;dashed=0;verticalLabelPosition=bottom;verticalAlign=top;align=center;html=1;fontSize=12;fontStyle=0;aspect=fixed;shape=mxgraph.aws4.resourceIcon;resIcon=mxgraph.aws4.codebuild;" parent="91" vertex="1">
                    <mxGeometry x="370" y="-968.7000000000005" width="78" height="78" as="geometry"/>
                </mxCell>
                <mxCell id="4" value="S3" style="outlineConnect=0;fontColor=#232F3E;gradientColor=#60A337;gradientDirection=north;fillColor=#277116;strokeColor=#ffffff;dashed=0;verticalLabelPosition=bottom;verticalAlign=top;align=center;html=1;fontSize=12;fontStyle=0;aspect=fixed;shape=mxgraph.aws4.resourceIcon;resIcon=mxgraph.aws4.s3;" parent="91" vertex="1">
                    <mxGeometry x="548.75" y="-993.0000000000005" width="78" height="78" as="geometry"/>
                </mxCell>
                <mxCell id="5" value="CodeDeploy" style="outlineConnect=0;fontColor=#232F3E;gradientColor=#4D72F3;gradientDirection=north;fillColor=#3334B9;strokeColor=#ffffff;dashed=0;verticalLabelPosition=bottom;verticalAlign=top;align=center;html=1;fontSize=12;fontStyle=0;aspect=fixed;shape=mxgraph.aws4.resourceIcon;resIcon=mxgraph.aws4.codedeploy;" parent="91" vertex="1">
                    <mxGeometry x="905.5" y="-937.1250000000005" width="78" height="78" as="geometry"/>
                </mxCell>
                <mxCell id="6" value="ECR" style="outlineConnect=0;fontColor=#232F3E;gradientColor=#F78E04;gradientDirection=north;fillColor=#D05C17;strokeColor=#ffffff;dashed=0;verticalLabelPosition=bottom;verticalAlign=top;align=center;html=1;fontSize=12;fontStyle=0;aspect=fixed;shape=mxgraph.aws4.resourceIcon;resIcon=mxgraph.aws4.ecr;" parent="91" vertex="1">
                    <mxGeometry x="1446.5" y="-1025.2500000000005" width="78" height="78" as="geometry"/>
                </mxCell>
                <mxCell id="10" value="" style="curved=1;endArrow=classic;html=1;strokeColor=#000000;noEdgeStyle=1;orthogonal=1;" parent="91" source="3" target="6" edge="1">
                    <mxGeometry width="50" height="50" relative="1" as="geometry">
                        <mxPoint x="149.35779816513764" y="190" as="sourcePoint"/>
                        <mxPoint x="270" y="119.2452830188679" as="targetPoint"/>
                        <Array as="points">
                            <mxPoint x="460" y="-952.5750000000005"/>
                            <mxPoint x="498" y="-1023.0000000000005"/>
                            <mxPoint x="677.5" y="-1023.0000000000005"/>
                            <mxPoint x="677.5" y="-1023.0000000000005"/>
                            <mxPoint x="855.5" y="-1023.0000000000005"/>
                            <mxPoint x="855.5" y="-1023.0000000000005"/>
                            <mxPoint x="1033.5" y="-1023.0000000000005"/>
                            <mxPoint x="1033.5" y="-1023.0000000000005"/>
                            <mxPoint x="1218.5" y="-1023.0000000000005"/>
                            <mxPoint x="1218.5" y="-1023.0000000000005"/>
                            <mxPoint x="1396.5" y="-1023.0000000000005"/>
                            <mxPoint x="1434.5" y="-998.0000000000005"/>
                        </Array>
                    </mxGeometry>
                </mxCell>
                <mxCell id="11" value="" style="curved=1;endArrow=classic;html=1;strokeColor=#000000;noEdgeStyle=1;orthogonal=1;" parent="91" source="3" target="4" edge="1">
                    <mxGeometry width="50" height="50" relative="1" as="geometry">
                        <mxPoint x="348" y="119" as="sourcePoint"/>
                        <mxPoint x="430" y="119" as="targetPoint"/>
                        <Array as="points">
                            <mxPoint x="462" y="-930.3250000000005"/>
                            <mxPoint x="536" y="-965.7500000000005"/>
                        </Array>
                    </mxGeometry>
                </mxCell>
                <mxCell id="9" value="" style="edgeStyle=orthogonalEdgeStyle;rounded=0;orthogonalLoop=1;jettySize=auto;html=1;noEdgeStyle=1;orthogonal=1;" parent="91" source="3" target="4" edge="1">
                    <mxGeometry relative="1" as="geometry">
                        <Array as="points">
                            <mxPoint x="462" y="-908.0750000000005"/>
                            <mxPoint x="536" y="-921.2500000000005"/>
                        </Array>
                    </mxGeometry>
                </mxCell>
                <mxCell id="12" value="Event" style="curved=1;endArrow=classic;html=1;strokeColor=#000000;noEdgeStyle=1;orthogonal=1;" parent="91" source="4" target="2" edge="1">
                    <mxGeometry width="50" height="50" relative="1" as="geometry">
                        <mxPoint x="159.9909090909091" y="190" as="sourcePoint"/>
                        <mxPoint x="270" y="119" as="targetPoint"/>
                        <Array as="points">
                            <mxPoint x="639.5" y="-943.5000000000005"/>
                            <mxPoint x="715.5" y="-915.5625000000005"/>
                        </Array>
                    </mxGeometry>
                </mxCell>
                <mxCell id="13" value="" style="curved=1;endArrow=classic;html=1;strokeColor=#000000;noEdgeStyle=1;orthogonal=1;" parent="91" source="2" target="5" edge="1">
                    <mxGeometry width="50" height="50" relative="1" as="geometry">
                        <mxPoint x="180" y="350" as="sourcePoint"/>
                        <mxPoint x="188" y="222.32432432432438" as="targetPoint"/>
                        <Array as="points">
                            <mxPoint x="817.5" y="-915.5625000000005"/>
                            <mxPoint x="893.5" y="-887.6250000000005"/>
                        </Array>
                    </mxGeometry>
                </mxCell>
                <mxCell id="15" value="CloudFormation" style="outlineConnect=0;fontColor=#232F3E;gradientColor=#F34482;gradientDirection=north;fillColor=#BC1356;strokeColor=#ffffff;dashed=0;verticalLabelPosition=bottom;verticalAlign=top;align=center;html=1;fontSize=12;fontStyle=0;aspect=fixed;shape=mxgraph.aws4.resourceIcon;resIcon=mxgraph.aws4.cloudformation;" parent="91" vertex="1">
                    <mxGeometry x="1087" y="-926.3750000000005" width="78" height="78" as="geometry"/>
                </mxCell>
                <mxCell id="16" value="" style="curved=1;endArrow=classic;html=1;strokeColor=#000000;noEdgeStyle=1;orthogonal=1;" parent="91" source="5" target="15" edge="1">
                    <mxGeometry width="50" height="50" relative="1" as="geometry">
                        <mxPoint x="188" y="226.09917355371897" as="sourcePoint"/>
                        <mxPoint x="307.4953271028037" y="288" as="targetPoint"/>
                        <Array as="points">
                            <mxPoint x="995.5" y="-887.6250000000005"/>
                            <mxPoint x="1071.5" y="-876.8750000000005"/>
                        </Array>
                    </mxGeometry>
                </mxCell>
                <mxCell id="17" value="" style="dashed=0;outlineConnect=0;html=1;align=center;labelPosition=center;verticalLabelPosition=bottom;verticalAlign=top;shape=mxgraph.weblogos.github" parent="91" vertex="1">
                    <mxGeometry x="172.5" y="-969.0000000000005" width="75" height="75" as="geometry"/>
                </mxCell>
                <mxCell id="18" value="Webhook" style="curved=1;endArrow=classic;html=1;strokeColor=#000000;noEdgeStyle=1;orthogonal=1;" parent="91" source="17" target="3" edge="1">
                    <mxGeometry width="50" height="50" relative="1" as="geometry">
                        <mxPoint x="266" y="59.5" as="sourcePoint"/>
                        <mxPoint x="366" y="140.27777777777783" as="targetPoint"/>
                        <Array as="points">
                            <mxPoint x="282" y="-931.5000000000005"/>
                            <mxPoint x="358" y="-941.4500000000005"/>
                        </Array>
                    </mxGeometry>
                </mxCell>
                <mxCell id="19" value="ECS" style="outlineConnect=0;fontColor=#232F3E;gradientColor=#F78E04;gradientDirection=north;fillColor=#D05C17;strokeColor=#ffffff;dashed=0;verticalLabelPosition=bottom;verticalAlign=top;align=center;html=1;fontSize=12;fontStyle=0;aspect=fixed;shape=mxgraph.aws4.resourceIcon;resIcon=mxgraph.aws4.ecs;" parent="91" vertex="1">
                    <mxGeometry x="1268.5" y="-985.5000000000005" width="78" height="78" as="geometry"/>
                </mxCell>
                <mxCell id="20" value="" style="curved=1;endArrow=classic;html=1;strokeColor=#000000;noEdgeStyle=1;orthogonal=1;" parent="91" source="15" target="19" edge="1">
                    <mxGeometry width="50" height="50" relative="1" as="geometry">
                        <mxPoint x="622" y="161.30555555555566" as="sourcePoint"/>
                        <mxPoint x="722" y="161.30555555555566" as="targetPoint"/>
                        <Array as="points">
                            <mxPoint x="1180.5" y="-899.1250000000005"/>
                            <mxPoint x="1256.5" y="-936.0000000000005"/>
                        </Array>
                    </mxGeometry>
                </mxCell>
                <mxCell id="46" value="" style="curved=1;endArrow=classic;html=1;strokeColor=#000000;noEdgeStyle=1;orthogonal=1;" parent="91" source="3" target="78" edge="1">
                    <mxGeometry width="50" height="50" relative="1" as="geometry">
                        <mxPoint x="263" y="200.5" as="sourcePoint"/>
                        <mxPoint x="363" y="188.5" as="targetPoint"/>
                        <Array as="points">
                            <mxPoint x="462" y="-885.8250000000005"/>
                            <mxPoint x="536" y="-807.0000000000005"/>
                        </Array>
                    </mxGeometry>
                </mxCell>
                <mxCell id="49" value="Notification" style="edgeLabel;html=1;align=center;verticalAlign=middle;resizable=0;points=[];fontSize=12;fontColor=#FFFFFF;" parent="46" vertex="1" connectable="0">
                    <mxGeometry x="-0.5202" y="27" relative="1" as="geometry">
                        <mxPoint y="1" as="offset"/>
                    </mxGeometry>
                </mxCell>
                <mxCell id="52" value="" style="curved=1;endArrow=classic;html=1;strokeColor=#000000;noEdgeStyle=1;orthogonal=1;" parent="91" source="19" target="6" edge="1">
                    <mxGeometry width="50" height="50" relative="1" as="geometry">
                        <mxPoint x="987" y="69.41484762588516" as="sourcePoint"/>
                        <mxPoint x="1090.5" y="69.41484762588516" as="targetPoint"/>
                        <Array as="points">
                            <mxPoint x="1358.5" y="-936.0000000000005"/>
                            <mxPoint x="1434.5" y="-953.5000000000005"/>
                        </Array>
                    </mxGeometry>
                </mxCell>
                <mxCell id="56" value="Lambda" style="outlineConnect=0;fontColor=#232F3E;gradientColor=#F78E04;gradientDirection=north;fillColor=#D05C17;strokeColor=#ffffff;dashed=0;verticalLabelPosition=bottom;verticalAlign=top;align=center;html=1;fontSize=12;fontStyle=0;aspect=fixed;shape=mxgraph.aws4.resourceIcon;resIcon=mxgraph.aws4.lambda;labelBackgroundColor=none;" parent="91" vertex="1">
                    <mxGeometry x="1268.5" y="-856.5000000000005" width="78" height="78" as="geometry"/>
                </mxCell>
                <mxCell id="57" value="" style="curved=1;endArrow=classic;html=1;strokeColor=#000000;noEdgeStyle=1;orthogonal=1;" parent="91" source="15" target="56" edge="1">
                    <mxGeometry width="50" height="50" relative="1" as="geometry">
                        <mxPoint x="1181.75" y="536.87109375" as="sourcePoint"/>
                        <mxPoint x="1113.75" y="485.5" as="targetPoint"/>
                        <Array as="points">
                            <mxPoint x="1180.5" y="-854.6250000000005"/>
                            <mxPoint x="1256.5" y="-807.0000000000005"/>
                        </Array>
                    </mxGeometry>
                </mxCell>
                <mxCell id="78" value="SES" style="outlineConnect=0;dashed=0;verticalLabelPosition=bottom;verticalAlign=top;align=center;html=1;shape=mxgraph.aws3.ses;fillColor=#D9A741;gradientColor=none;labelBackgroundColor=none;fontSize=12;fontColor=#000000;" parent="91" vertex="1">
                    <mxGeometry x="548" y="-864.0000000000005" width="79.5" height="93" as="geometry"/>
                </mxCell>
                <mxCell id="92" value="SAM" style="outlineConnect=0;fontColor=#232F3E;gradientColor=#F78E04;gradientDirection=north;fillColor=#D05C17;strokeColor=#ffffff;dashed=0;verticalLabelPosition=bottom;verticalAlign=top;align=center;html=1;fontSize=12;fontStyle=0;aspect=fixed;shape=mxgraph.aws4.resourceIcon;resIcon=mxgraph.aws4.serverless_application_repository;labelBackgroundColor=none;" parent="1" vertex="1">
                    <mxGeometry x="150" y="1195.359375" width="78" height="78" as="geometry"/>
                </mxCell>
                <mxCell id="93" value="SAM" style="outlineConnect=0;fontColor=#232F3E;gradientColor=#F78E04;gradientDirection=north;fillColor=#D05C17;strokeColor=#ffffff;dashed=0;verticalLabelPosition=bottom;verticalAlign=top;align=center;html=1;fontSize=12;fontStyle=0;aspect=fixed;shape=mxgraph.aws4.resourceIcon;resIcon=mxgraph.aws4.serverless_application_repository;labelBackgroundColor=none;" parent="1" vertex="1">
                    <mxGeometry x="150" y="193.5" width="78" height="78" as="geometry"/>
                </mxCell>
                <mxCell id="94" value="" style="curved=1;endArrow=classic;html=1;strokeColor=#000000;noEdgeStyle=1;orthogonal=1;" parent="1" source="93" target="81" edge="1">
                    <mxGeometry width="50" height="50" relative="1" as="geometry">
                        <mxPoint x="60" y="360" as="sourcePoint"/>
                        <mxPoint x="195" y="247.55078125" as="targetPoint"/>
                        <Array as="points">
                            <mxPoint x="240" y="243"/>
                            <mxPoint x="316" y="241.59375"/>
                        </Array>
                    </mxGeometry>
                </mxCell>
                <mxCell id="95" value="" style="curved=1;endArrow=classic;html=1;strokeColor=#000000;noEdgeStyle=1;orthogonal=1;" parent="1" source="92" target="86" edge="1">
                    <mxGeometry width="50" height="50" relative="1" as="geometry">
                        <mxPoint x="91.5" y="866.3124999999998" as="sourcePoint"/>
                        <mxPoint x="82" y="913" as="targetPoint"/>
                        <Array as="points">
                            <mxPoint x="240" y="1244.859375"/>
                            <mxPoint x="316" y="1246.5"/>
                        </Array>
                    </mxGeometry>
                </mxCell>
                <mxCell id="96" value="" style="curved=1;endArrow=classic;html=1;strokeColor=#000000;noEdgeStyle=1;orthogonal=1;" parent="1" source="97" target="3" edge="1">
                    <mxGeometry width="50" height="50" relative="1" as="geometry">
                        <mxPoint x="120" y="1425.0000000000005" as="sourcePoint"/>
                        <mxPoint x="195" y="866.3124999999998" as="targetPoint"/>
                        <Array as="points">
                            <mxPoint x="282" y="735"/>
                            <mxPoint x="358" y="672.05"/>
                        </Array>
                    </mxGeometry>
                </mxCell>
                <mxCell id="97" value="Terraform" style="rounded=1;whiteSpace=wrap;html=1;labelBackgroundColor=none;fontSize=18;fontColor=#FFFFFF;fillColor=#000000;" parent="1" vertex="1">
                    <mxGeometry x="150" y="705" width="120" height="60" as="geometry"/>
                </mxCell>
                <mxCell id="98" value="CLI" style="pointerEvents=1;shadow=0;dashed=0;html=1;strokeColor=none;labelPosition=center;verticalLabelPosition=bottom;verticalAlign=top;align=center;fillColor=#515151;shape=mxgraph.mscae.system_center.admin_console;labelBackgroundColor=none;fontSize=18;fontColor=#000000;" parent="1" vertex="1">
                    <mxGeometry y="211" width="50" height="36" as="geometry"/>
                </mxCell>
                <mxCell id="99" value="" style="curved=1;endArrow=classic;html=1;strokeColor=#000000;noEdgeStyle=1;orthogonal=1;" parent="1" source="98" target="93" edge="1">
                    <mxGeometry width="50" height="50" relative="1" as="geometry">
                        <mxPoint x="88" y="941.59375" as="sourcePoint"/>
                        <mxPoint x="191.5" y="941.59375" as="targetPoint"/>
                        <Array as="points">
                            <mxPoint x="62" y="243"/>
                            <mxPoint x="138" y="243"/>
                        </Array>
                    </mxGeometry>
                </mxCell>
                <mxCell id="100" value="CLI" style="pointerEvents=1;shadow=0;dashed=0;html=1;strokeColor=none;labelPosition=center;verticalLabelPosition=bottom;verticalAlign=top;align=center;fillColor=#515151;shape=mxgraph.mscae.system_center.admin_console;labelBackgroundColor=none;fontSize=18;fontColor=#000000;" parent="1" vertex="1">
                    <mxGeometry y="703" width="50" height="36" as="geometry"/>
                </mxCell>
                <mxCell id="101" value="" style="curved=1;endArrow=classic;html=1;strokeColor=#000000;noEdgeStyle=1;orthogonal=1;exitX=0.5;exitY=0;exitDx=0;exitDy=0;exitPerimeter=0;" parent="1" source="100" target="97" edge="1">
                    <mxGeometry width="50" height="50" relative="1" as="geometry">
                        <mxPoint x="110" y="1035.9999999999998" as="sourcePoint"/>
                        <mxPoint x="88" y="951.59375" as="targetPoint"/>
                        <Array as="points">
                            <mxPoint x="62" y="735"/>
                            <mxPoint x="138" y="735"/>
                        </Array>
                    </mxGeometry>
                </mxCell>
                <mxCell id="102" value="CLI" style="pointerEvents=1;shadow=0;dashed=0;html=1;strokeColor=none;labelPosition=center;verticalLabelPosition=bottom;verticalAlign=top;align=center;fillColor=#515151;shape=mxgraph.mscae.system_center.admin_console;labelBackgroundColor=none;fontSize=18;fontColor=#000000;" parent="1" vertex="1">
                    <mxGeometry y="1212.859375" width="50" height="36" as="geometry"/>
                </mxCell>
                <mxCell id="103" value="" style="curved=1;endArrow=classic;html=1;strokeColor=#000000;noEdgeStyle=1;orthogonal=1;exitX=0.093;exitY=0.681;exitDx=0;exitDy=0;exitPerimeter=0;" parent="1" source="102" target="92" edge="1">
                    <mxGeometry width="50" height="50" relative="1" as="geometry">
                        <mxPoint x="70" y="760" as="sourcePoint"/>
                        <mxPoint x="88" y="951.59375" as="targetPoint"/>
                        <Array as="points">
                            <mxPoint x="62" y="1244.859375"/>
                            <mxPoint x="138" y="1244.859375"/>
                        </Array>
                    </mxGeometry>
                </mxCell>
            </root>
        </mxGraphModel>
    </diagram>
</mxfile>